<svg width="50" height="38" viewBox="0 0 50 38" fill="none" xmlns="http://www.w3.org/2000/svg">
<path d="M44.3097 0.623385C43.7751 0.277557 43.1638 0.0683391 42.5295 0.0141204C41.8951 -0.0400982 41.2571 0.0623433 40.6716 0.31244L21.4863 7.86841C21.0321 8.05327 20.5464 8.1483 20.056 8.14826H7.77363C6.74278 8.14826 5.75416 8.55776 5.02524 9.28668C4.29632 10.0156 3.88682 11.0042 3.88682 12.0351V12.346H0V21.6744H3.88682V22.0786C3.91117 23.0932 4.3314 24.058 5.0577 24.7669C5.784 25.4758 6.75874 25.8724 7.77363 25.8721L12.4378 35.7602C12.7536 36.4261 13.2509 36.9894 13.8724 37.3854C14.4939 37.7814 15.2145 37.9941 15.9515 37.999H17.9104C18.9359 37.9908 19.9166 37.5777 20.6388 36.8496C21.361 36.1216 21.7662 35.1377 21.7662 34.1122V26.2453L40.6716 33.8012C41.1367 33.9863 41.6326 34.0813 42.1331 34.0811C42.9095 34.0686 43.6657 33.8309 44.3097 33.397C44.8211 33.0517 45.243 32.5896 45.5404 32.0489C45.8378 31.5082 46.0021 30.9044 46.0199 30.2876V3.82612C46.0171 3.1934 45.8598 2.57093 45.5617 2.01279C45.2637 1.45465 44.8339 0.977708 44.3097 0.623385ZM17.8794 12.0351V22.0786H7.77363V12.0351H17.8794ZM17.8794 34.1122H15.9204L12.0958 25.8721H17.8794V34.1122ZM22.9167 22.545C22.5475 22.3564 22.1625 22.2003 21.7662 22.0786V11.8174C22.1587 11.7364 22.5436 11.622 22.9167 11.4754L42.1331 3.82612V30.1943L22.9167 22.545ZM46.1132 13.1234V20.897C47.144 20.897 48.1327 20.4875 48.8616 19.7586C49.5905 19.0297 50 18.041 50 17.0102C50 15.9794 49.5905 14.9907 48.8616 14.2618C48.1327 13.5329 47.144 13.1234 46.1132 13.1234Z" fill="white"/>
</svg>
